<?xml version="1.0" encoding="utf-8"?>
<!-- Generator: Adobe Illustrator 18.1.0, SVG Export Plug-In . SVG Version: 6.00 Build 0)  -->
<!DOCTYPE svg PUBLIC "-//W3C//DTD SVG 1.1//EN" "http://www.w3.org/Graphics/SVG/1.1/DTD/svg11.dtd">
<svg version="1.1" id="Layer_1" xmlns="http://www.w3.org/2000/svg" xmlns:xlink="http://www.w3.org/1999/xlink" x="0px" y="0px"
	 viewBox="0 0 12 13" enable-background="new 0 0 12 13" xml:space="preserve">
<g>
	<path fill="#0B89CA" d="M9.9,4.7c0.1,0,0.2,0,0.3,0.1l0,0l1.5,1.5c0.1,0.1,0.1,0.1,0.2,0.1c0.1,0,0.1-0.1,0.1-0.2V1.5
		c0-0.2-0.2-0.4-0.4-0.4H6.9c-0.2,0-0.3,0.1-0.1,0.3l1.5,1.5c0.2,0.2,0.2,0.5,0,0.6L7.6,4.1h0L5.8,5.9L4.3,7.4
		c-0.2,0.2-0.2,0.5,0,0.6l0.4,0.3L5,8.8c0.1,0.1,0.2,0.1,0.3,0.1c0.1,0,0.2,0,0.3-0.1L7,7.4l2.5-2.5C9.7,4.8,9.8,4.7,9.9,4.7z"/>
	<path fill="#0B89CA" d="M9.1,6.4L8.1,7.4v4.4H1.2V4.9h4.6l0.9-0.9L6.3,3.7H1c-0.6,0-1,0.5-1,1V12c0,0.6,0.5,1,1,1h7.3
		c0.6,0,1-0.5,1-1V6.7L9.1,6.4z"/>
</g>
</svg>
