<?xml version="1.0" encoding="utf-8"?>
<!-- Generator: Adobe Illustrator 18.1.0, SVG Export Plug-In . SVG Version: 6.00 Build 0)  -->
<!DOCTYPE svg PUBLIC "-//W3C//DTD SVG 1.1 Tiny//EN" "http://www.w3.org/Graphics/SVG/1.1/DTD/svg11-tiny.dtd">
<svg version="1.1" baseProfile="tiny" id="Layer_1" xmlns="http://www.w3.org/2000/svg" xmlns:xlink="http://www.w3.org/1999/xlink"
	 x="0px" y="0px" viewBox="0 0 12 13" xml:space="preserve">
<g>
	<path fill="#8B8D8F" d="M10.9,0H1C0.4,0,0,0.5,0,1.1v7.8C0,9.5,0.5,10,1.1,10h3.3L6,12.9L7.6,10h3.3c0.6,0,1.1-0.5,1.1-1.1V1.1
		C12,0.5,11.5,0,10.9,0z"/>
	<g>
		<path fill="#FFFFFF" d="M6.8,6.8C6.8,6.8,6.9,6.9,6.8,6.8L5.1,6.9c0,0,0-0.1,0-0.1c0-1.5,2.2-2.1,2.2-3.3C7.4,2.8,7,2.3,6,2.3
			S4.6,2.9,4.6,3.5c0,0,0,0.1,0,0.1H3.2c0-0.1,0-0.3,0-0.4C3.3,1.8,4.5,0.9,6,0.9c1.6,0,2.8,0.9,2.8,2.6C8.8,5,6.8,5.7,6.8,6.8z"/>
	</g>
</g>
<path fill="#FFFFFF" d="M6.4,9.4H5.6c-0.3,0-0.5-0.2-0.5-0.5V8.2c0-0.3,0.2-0.5,0.5-0.5h0.7c0.3,0,0.5,0.2,0.5,0.5v0.7
	C6.9,9.2,6.6,9.4,6.4,9.4z"/>
</svg>
